<svg width="350" height="192" viewBox="0 0 350 192" fill="none" xmlns="http://www.w3.org/2000/svg">
<path d="M82.5796 67.1399H56.9766V124.469H82.5796V118.424H63.452V73.4773H82.5796V67.1399Z" fill="white"/>
<path d="M25.0923 67.1399H50.6953V124.469H25.0923V118.424H44.2198V73.4773H25.0923V67.1399Z" fill="white"/>
<path d="M65.1328 63.2399V57H93.0272V134.999H65.1328V128.662H86.5517V63.2399H65.1328Z" fill="white"/>
<path d="M42.9219 63.2399V57H15.0275V134.999H42.9219V128.662H21.503V63.2399H42.9219Z" fill="white"/>
<path d="M107.586 109L121.938 76.8H129.298L143.696 109H135.876L124.1 80.572H127.044L115.222 109H107.586ZM114.762 102.1L116.74 96.442H133.3L135.324 102.1H114.762ZM151.637 109V76.8H159.089V102.928H175.235V109H151.637ZM197.945 109.552C193.376 109.552 189.803 108.279 187.227 105.734C184.651 103.189 183.363 99.5547 183.363 94.832V76.8H190.815V94.556C190.815 97.6227 191.444 99.8307 192.701 101.18C193.958 102.529 195.722 103.204 197.991 103.204C200.26 103.204 202.024 102.529 203.281 101.18C204.538 99.8307 205.167 97.6227 205.167 94.556V76.8H212.527V94.832C212.527 99.5547 211.239 103.189 208.663 105.734C206.087 108.279 202.514 109.552 197.945 109.552Z" fill="white"/>
<path d="M244.398 109.552C241.822 109.552 239.353 109.215 236.992 108.54C234.631 107.835 232.729 106.93 231.288 105.826L233.818 100.214C235.198 101.195 236.823 102.008 238.694 102.652C240.595 103.265 242.512 103.572 244.444 103.572C245.916 103.572 247.097 103.434 247.986 103.158C248.906 102.851 249.581 102.437 250.01 101.916C250.439 101.395 250.654 100.797 250.654 100.122C250.654 99.2633 250.317 98.5887 249.642 98.098C248.967 97.5767 248.078 97.1627 246.974 96.856C245.87 96.5187 244.643 96.212 243.294 95.936C241.975 95.6293 240.641 95.2613 239.292 94.832C237.973 94.4027 236.762 93.8507 235.658 93.176C234.554 92.5013 233.649 91.612 232.944 90.508C232.269 89.404 231.932 87.9933 231.932 86.276C231.932 84.436 232.423 82.7647 233.404 81.262C234.416 79.7287 235.919 78.5173 237.912 77.628C239.936 76.708 242.466 76.248 245.502 76.248C247.526 76.248 249.519 76.4933 251.482 76.984C253.445 77.444 255.177 78.1493 256.68 79.1L254.38 84.758C252.877 83.8993 251.375 83.2707 249.872 82.872C248.369 82.4427 246.897 82.228 245.456 82.228C244.015 82.228 242.834 82.3967 241.914 82.734C240.994 83.0713 240.335 83.516 239.936 84.068C239.537 84.5893 239.338 85.2027 239.338 85.908C239.338 86.736 239.675 87.4107 240.35 87.932C241.025 88.4227 241.914 88.8213 243.018 89.128C244.122 89.4347 245.333 89.7413 246.652 90.048C248.001 90.3547 249.335 90.7073 250.654 91.106C252.003 91.5047 253.23 92.0413 254.334 92.716C255.438 93.3907 256.327 94.28 257.002 95.384C257.707 96.488 258.06 97.8833 258.06 99.57C258.06 101.379 257.554 103.035 256.542 104.538C255.53 106.041 254.012 107.252 251.988 108.172C249.995 109.092 247.465 109.552 244.398 109.552ZM274.606 89.772H290.108V95.568H274.606V89.772ZM275.158 103.02H292.684V109H267.752V76.8H292.086V82.78H275.158V103.02ZM298.981 109L313.333 76.8H320.693L335.091 109H327.271L315.495 80.572H318.439L306.617 109H298.981ZM306.157 102.1L308.135 96.442H324.695L326.719 102.1H306.157Z" fill="white"/>
<path d="M111.68 135V123.8H116.4C117.595 123.8 118.645 124.035 119.552 124.504C120.469 124.973 121.179 125.629 121.68 126.472C122.192 127.315 122.448 128.291 122.448 129.4C122.448 130.509 122.192 131.485 121.68 132.328C121.179 133.171 120.469 133.827 119.552 134.296C118.645 134.765 117.595 135 116.4 135H111.68ZM113.28 133.608H116.304C117.232 133.608 118.032 133.432 118.704 133.08C119.387 132.728 119.915 132.237 120.288 131.608C120.661 130.968 120.848 130.232 120.848 129.4C120.848 128.557 120.661 127.821 120.288 127.192C119.915 126.563 119.387 126.072 118.704 125.72C118.032 125.368 117.232 125.192 116.304 125.192H113.28V133.608ZM133.795 135.128C132.941 135.128 132.147 134.984 131.411 134.696C130.685 134.408 130.056 134.008 129.523 133.496C128.989 132.973 128.573 132.365 128.275 131.672C127.976 130.979 127.827 130.221 127.827 129.4C127.827 128.579 127.976 127.821 128.275 127.128C128.573 126.435 128.989 125.832 129.523 125.32C130.056 124.797 130.685 124.392 131.411 124.104C132.136 123.816 132.931 123.672 133.795 123.672C134.648 123.672 135.432 123.816 136.147 124.104C136.872 124.381 137.501 124.781 138.035 125.304C138.579 125.816 138.995 126.419 139.283 127.112C139.581 127.805 139.731 128.568 139.731 129.4C139.731 130.232 139.581 130.995 139.283 131.688C138.995 132.381 138.579 132.989 138.035 133.512C137.501 134.024 136.872 134.424 136.147 134.712C135.432 134.989 134.648 135.128 133.795 135.128ZM133.795 133.704C134.413 133.704 134.984 133.597 135.507 133.384C136.04 133.171 136.499 132.872 136.883 132.488C137.277 132.093 137.581 131.635 137.795 131.112C138.019 130.589 138.131 130.019 138.131 129.4C138.131 128.781 138.019 128.211 137.795 127.688C137.581 127.165 137.277 126.712 136.883 126.328C136.499 125.933 136.04 125.629 135.507 125.416C134.984 125.203 134.413 125.096 133.795 125.096C133.165 125.096 132.584 125.203 132.051 125.416C131.528 125.629 131.069 125.933 130.675 126.328C130.28 126.712 129.971 127.165 129.747 127.688C129.533 128.211 129.427 128.781 129.427 129.4C129.427 130.019 129.533 130.589 129.747 131.112C129.971 131.635 130.28 132.093 130.675 132.488C131.069 132.872 131.528 133.171 132.051 133.384C132.584 133.597 133.165 133.704 133.795 133.704ZM151.072 135.128C150.219 135.128 149.424 134.984 148.688 134.696C147.963 134.408 147.334 134.008 146.8 133.496C146.267 132.973 145.851 132.365 145.552 131.672C145.254 130.979 145.104 130.221 145.104 129.4C145.104 128.579 145.254 127.821 145.552 127.128C145.851 126.435 146.267 125.832 146.8 125.32C147.334 124.797 147.963 124.392 148.688 124.104C149.414 123.816 150.208 123.672 151.072 123.672C151.926 123.672 152.71 123.816 153.424 124.104C154.15 124.381 154.779 124.781 155.312 125.304C155.856 125.816 156.272 126.419 156.56 127.112C156.859 127.805 157.008 128.568 157.008 129.4C157.008 130.232 156.859 130.995 156.56 131.688C156.272 132.381 155.856 132.989 155.312 133.512C154.779 134.024 154.15 134.424 153.424 134.712C152.71 134.989 151.926 135.128 151.072 135.128ZM151.072 133.704C151.691 133.704 152.262 133.597 152.784 133.384C153.318 133.171 153.776 132.872 154.16 132.488C154.555 132.093 154.859 131.635 155.072 131.112C155.296 130.589 155.408 130.019 155.408 129.4C155.408 128.781 155.296 128.211 155.072 127.688C154.859 127.165 154.555 126.712 154.16 126.328C153.776 125.933 153.318 125.629 152.784 125.416C152.262 125.203 151.691 125.096 151.072 125.096C150.443 125.096 149.862 125.203 149.328 125.416C148.806 125.629 148.347 125.933 147.952 126.328C147.558 126.712 147.248 127.165 147.024 127.688C146.811 128.211 146.704 128.781 146.704 129.4C146.704 130.019 146.811 130.589 147.024 131.112C147.248 131.635 147.558 132.093 147.952 132.488C148.347 132.872 148.806 133.171 149.328 133.384C149.862 133.597 150.443 133.704 151.072 133.704ZM163.294 135V123.8H167.662C168.643 123.8 169.48 123.955 170.174 124.264C170.867 124.573 171.4 125.021 171.774 125.608C172.147 126.195 172.334 126.893 172.334 127.704C172.334 128.515 172.147 129.213 171.774 129.8C171.4 130.376 170.867 130.819 170.174 131.128C169.48 131.437 168.643 131.592 167.662 131.592H164.174L164.894 130.856V135H163.294ZM170.782 135L167.934 130.936H169.646L172.526 135H170.782ZM164.894 131.016L164.174 130.232H167.614C168.638 130.232 169.411 130.013 169.934 129.576C170.467 129.128 170.734 128.504 170.734 127.704C170.734 126.904 170.467 126.285 169.934 125.848C169.411 125.411 168.638 125.192 167.614 125.192H164.174L164.894 124.392V131.016ZM182.023 135.128C181.169 135.128 180.353 135 179.575 134.744C178.796 134.477 178.183 134.136 177.735 133.72L178.327 132.472C178.753 132.845 179.297 133.155 179.959 133.4C180.62 133.645 181.308 133.768 182.023 133.768C182.673 133.768 183.201 133.693 183.607 133.544C184.012 133.395 184.311 133.192 184.503 132.936C184.695 132.669 184.791 132.371 184.791 132.04C184.791 131.656 184.663 131.347 184.407 131.112C184.161 130.877 183.836 130.691 183.431 130.552C183.036 130.403 182.599 130.275 182.119 130.168C181.639 130.061 181.153 129.939 180.663 129.8C180.183 129.651 179.74 129.464 179.335 129.24C178.94 129.016 178.62 128.717 178.375 128.344C178.129 127.96 178.007 127.469 178.007 126.872C178.007 126.296 178.156 125.768 178.455 125.288C178.764 124.797 179.233 124.408 179.863 124.12C180.503 123.821 181.313 123.672 182.295 123.672C182.945 123.672 183.591 123.757 184.231 123.928C184.871 124.099 185.425 124.344 185.895 124.664L185.367 125.944C184.887 125.624 184.38 125.395 183.847 125.256C183.313 125.107 182.796 125.032 182.295 125.032C181.665 125.032 181.148 125.112 180.743 125.272C180.337 125.432 180.039 125.645 179.847 125.912C179.665 126.179 179.575 126.477 179.575 126.808C179.575 127.203 179.697 127.517 179.943 127.752C180.199 127.987 180.524 128.173 180.919 128.312C181.324 128.451 181.767 128.579 182.247 128.696C182.727 128.803 183.207 128.925 183.687 129.064C184.177 129.203 184.62 129.384 185.015 129.608C185.42 129.832 185.745 130.131 185.991 130.504C186.236 130.877 186.359 131.357 186.359 131.944C186.359 132.509 186.204 133.037 185.895 133.528C185.585 134.008 185.105 134.397 184.455 134.696C183.815 134.984 183.004 135.128 182.023 135.128ZM203.633 135.128C202.876 135.128 202.204 135.005 201.617 134.76C201.03 134.515 200.566 134.173 200.225 133.736C199.884 133.299 199.713 132.792 199.713 132.216C199.713 131.715 199.825 131.256 200.049 130.84C200.273 130.424 200.63 130.024 201.121 129.64C201.612 129.245 202.257 128.84 203.057 128.424C203.708 128.083 204.214 127.784 204.577 127.528C204.95 127.272 205.212 127.032 205.361 126.808C205.521 126.573 205.601 126.323 205.601 126.056C205.601 125.693 205.473 125.4 205.217 125.176C204.961 124.941 204.593 124.824 204.113 124.824C203.612 124.824 203.217 124.952 202.929 125.208C202.652 125.453 202.513 125.779 202.513 126.184C202.513 126.387 202.545 126.584 202.609 126.776C202.684 126.957 202.812 127.165 202.993 127.4C203.185 127.624 203.457 127.912 203.809 128.264L209.729 134.152L208.865 135.176L202.577 128.92C202.204 128.547 201.91 128.216 201.697 127.928C201.484 127.629 201.329 127.341 201.233 127.064C201.137 126.787 201.089 126.504 201.089 126.216C201.089 125.715 201.212 125.277 201.457 124.904C201.713 124.52 202.065 124.227 202.513 124.024C202.972 123.811 203.505 123.704 204.113 123.704C204.678 123.704 205.169 123.8 205.585 123.992C206.001 124.173 206.321 124.44 206.545 124.792C206.78 125.133 206.897 125.549 206.897 126.04C206.897 126.467 206.79 126.861 206.577 127.224C206.374 127.587 206.044 127.939 205.585 128.28C205.126 128.621 204.508 128.989 203.729 129.384C203.089 129.715 202.588 130.024 202.225 130.312C201.862 130.589 201.601 130.867 201.441 131.144C201.292 131.421 201.217 131.725 201.217 132.056C201.217 132.408 201.318 132.723 201.521 133C201.734 133.267 202.028 133.475 202.401 133.624C202.785 133.773 203.228 133.848 203.729 133.848C204.444 133.848 205.089 133.693 205.665 133.384C206.241 133.075 206.721 132.611 207.105 131.992C207.5 131.373 207.788 130.605 207.969 129.688L209.201 130.088C208.988 131.165 208.62 132.077 208.097 132.824C207.585 133.571 206.95 134.141 206.193 134.536C205.436 134.931 204.582 135.128 203.633 135.128ZM226.195 135L222.451 123.8H224.099L227.539 134.136H226.707L230.275 123.8H231.747L235.235 134.136H234.435L237.923 123.8H239.443L235.699 135H234.019L230.755 125.416H231.187L227.907 135H226.195ZM245.24 135V123.8H246.84V135H245.24ZM254.033 135V123.8H255.345L262.753 133H262.065V123.8H263.665V135H262.353L254.945 125.8H255.633V135H254.033ZM270.858 135V123.8H275.578C276.772 123.8 277.823 124.035 278.73 124.504C279.647 124.973 280.356 125.629 280.858 126.472C281.37 127.315 281.626 128.291 281.626 129.4C281.626 130.509 281.37 131.485 280.858 132.328C280.356 133.171 279.647 133.827 278.73 134.296C277.823 134.765 276.772 135 275.578 135H270.858ZM272.458 133.608H275.482C276.41 133.608 277.21 133.432 277.882 133.08C278.564 132.728 279.092 132.237 279.466 131.608C279.839 130.968 280.026 130.232 280.026 129.4C280.026 128.557 279.839 127.821 279.466 127.192C279.092 126.563 278.564 126.072 277.882 125.72C277.21 125.368 276.41 125.192 275.482 125.192H272.458V133.608ZM292.972 135.128C292.119 135.128 291.324 134.984 290.588 134.696C289.863 134.408 289.234 134.008 288.7 133.496C288.167 132.973 287.751 132.365 287.452 131.672C287.154 130.979 287.004 130.221 287.004 129.4C287.004 128.579 287.154 127.821 287.452 127.128C287.751 126.435 288.167 125.832 288.7 125.32C289.234 124.797 289.863 124.392 290.588 124.104C291.314 123.816 292.108 123.672 292.972 123.672C293.826 123.672 294.61 123.816 295.324 124.104C296.05 124.381 296.679 124.781 297.212 125.304C297.756 125.816 298.172 126.419 298.46 127.112C298.759 127.805 298.908 128.568 298.908 129.4C298.908 130.232 298.759 130.995 298.46 131.688C298.172 132.381 297.756 132.989 297.212 133.512C296.679 134.024 296.05 134.424 295.324 134.712C294.61 134.989 293.826 135.128 292.972 135.128ZM292.972 133.704C293.591 133.704 294.162 133.597 294.684 133.384C295.218 133.171 295.676 132.872 296.06 132.488C296.455 132.093 296.759 131.635 296.972 131.112C297.196 130.589 297.308 130.019 297.308 129.4C297.308 128.781 297.196 128.211 296.972 127.688C296.759 127.165 296.455 126.712 296.06 126.328C295.676 125.933 295.218 125.629 294.684 125.416C294.162 125.203 293.591 125.096 292.972 125.096C292.343 125.096 291.762 125.203 291.228 125.416C290.706 125.629 290.247 125.933 289.852 126.328C289.458 126.712 289.148 127.165 288.924 127.688C288.711 128.211 288.604 128.781 288.604 129.4C288.604 130.019 288.711 130.589 288.924 131.112C289.148 131.635 289.458 132.093 289.852 132.488C290.247 132.872 290.706 133.171 291.228 133.384C291.762 133.597 292.343 133.704 292.972 133.704ZM307.426 135L303.682 123.8H305.33L308.77 134.136H307.938L311.506 123.8H312.978L316.466 134.136H315.666L319.154 123.8H320.674L316.93 135H315.25L311.986 125.416H312.418L309.138 135H307.426ZM329.735 135.128C328.882 135.128 328.066 135 327.287 134.744C326.509 134.477 325.895 134.136 325.447 133.72L326.039 132.472C326.466 132.845 327.01 133.155 327.671 133.4C328.333 133.645 329.021 133.768 329.735 133.768C330.386 133.768 330.914 133.693 331.319 133.544C331.725 133.395 332.023 133.192 332.215 132.936C332.407 132.669 332.503 132.371 332.503 132.04C332.503 131.656 332.375 131.347 332.119 131.112C331.874 130.877 331.549 130.691 331.143 130.552C330.749 130.403 330.311 130.275 329.831 130.168C329.351 130.061 328.866 129.939 328.375 129.8C327.895 129.651 327.453 129.464 327.047 129.24C326.653 129.016 326.333 128.717 326.087 128.344C325.842 127.96 325.719 127.469 325.719 126.872C325.719 126.296 325.869 125.768 326.167 125.288C326.477 124.797 326.946 124.408 327.575 124.12C328.215 123.821 329.026 123.672 330.007 123.672C330.658 123.672 331.303 123.757 331.943 123.928C332.583 124.099 333.138 124.344 333.607 124.664L333.079 125.944C332.599 125.624 332.093 125.395 331.559 125.256C331.026 125.107 330.509 125.032 330.007 125.032C329.378 125.032 328.861 125.112 328.455 125.272C328.05 125.432 327.751 125.645 327.559 125.912C327.378 126.179 327.287 126.477 327.287 126.808C327.287 127.203 327.41 127.517 327.655 127.752C327.911 127.987 328.237 128.173 328.631 128.312C329.037 128.451 329.479 128.579 329.959 128.696C330.439 128.803 330.919 128.925 331.399 129.064C331.89 129.203 332.333 129.384 332.727 129.608C333.133 129.832 333.458 130.131 333.703 130.504C333.949 130.877 334.071 131.357 334.071 131.944C334.071 132.509 333.917 133.037 333.607 133.528C333.298 134.008 332.818 134.397 332.167 134.696C331.527 134.984 330.717 135.128 329.735 135.128Z" fill="white"/>
</svg>
